<?xml version="1.0" encoding="utf-8"?>
<!-- Generator: Adobe Illustrator 27.5.0, SVG Export Plug-In . SVG Version: 6.00 Build 0)  -->
<svg version="1.1" id="Layer_1" xmlns="http://www.w3.org/2000/svg" xmlns:xlink="http://www.w3.org/1999/xlink" x="0px" y="0px"
	 viewBox="0 0 4000 4000" style="enable-background:new 0 0 4000 4000;" xml:space="preserve">
<g>
	<g>
		<rect style="fill:#CBEDFF;" width="4000" height="4000"/>
	</g>
	<g>
		<g>
			<g>
				<g>
					<path style="fill:#39A1FF;" d="M2974.749,2846.767c-556.801,114.085-1157.571,212.307-1788.713,299.538
						c-20.026,2.78-38.679-10.92-41.992-30.908L773.558,886.231c-3.392-20.357,10.312-39.583,30.668-42.976
						c31.129-5.207,62.421-10.372,93.836-15.537c518.404-84.987,1075.105-163.23,1658.251-236.89
						c19.04-2.377,36.844,9.967,41.146,28.652c150.824,656.129,281.723,1377.518,399.802,2140.439
						c2.322,14.825,4.603,29.652,6.883,44.518C3007.173,2824.138,2994.25,2842.797,2974.749,2846.767z"/>
				</g>
				<g>
					<path style="fill:#2F77F7;" d="M2974.749,2846.767c-556.801,114.085-1157.571,212.307-1788.713,299.538
						c-20.026,2.78-38.679-10.92-41.992-30.908L773.558,886.231c-3.392-20.357,10.312-39.583,30.668-42.976
						c31.129-5.207,62.421-10.372,93.836-15.537l173.654,1030.776c91.107,540.865,547.541,945.995,1095.55,969.046
						c266.253,11.232,545.696-12.682,829.995-67.621c2.322,14.825,4.603,29.652,6.883,44.518
						C3007.173,2824.138,2994.25,2842.797,2974.749,2846.767z"/>
				</g>
				<g style="opacity:0.6;">
					<path style="fill:#FFFFFF;" d="M3004.145,2804.438c-2.28-14.866-4.561-29.693-6.883-44.518
						c-118.08-762.921-248.979-1484.31-399.802-2140.439c-4.302-18.685-22.106-31.029-41.146-28.652
						c-583.146,73.66-1139.846,151.903-1658.251,236.89c-31.415,5.164-62.707,10.33-93.836,15.537
						c-7.257,1.209-13.643,4.457-18.736,9.025c25.14-4.185,50.352-8.354,75.672-12.516
						c518.404-84.987,1075.105-163.23,1658.251-236.89c19.041-2.377,36.844,9.967,41.146,28.652
						c150.823,656.129,281.722,1377.518,399.802,2140.438c2.322,14.826,4.603,29.652,6.883,44.518
						c2.061,13.409-3.28,26.325-13.043,34.466c6.845-1.395,13.715-2.781,20.547-4.181
						C2994.25,2842.797,3007.173,2824.138,3004.145,2804.438z"/>
				</g>
				<g>
					<path style="fill:#000072;" d="M1180.728,3158.954c-23.989,0-44.741-17.141-48.799-41.521L761.455,888.234
						c-4.482-26.982,13.799-52.595,40.747-57.095c515.171-86.03,1088.442-168.613,1752.573-252.471
						c25.454-3.181,48.896,13.162,54.629,38.076c143.525,624.177,276.611,1339.17,406.865,2185.845
						c4.028,26.208-13.125,50.901-39.058,56.213c-527.988,108.174-1113.335,206.196-1789.492,299.668
						C1185.366,3158.798,1183.032,3158.954,1180.728,3158.954z M785.674,884.21l370.474,2229.197
						c2.251,13.51,14.668,22.622,28.213,20.747c675.625-93.401,1260.464-191.335,1787.92-299.399
						c13.101-2.685,21.763-15.173,19.722-28.435c-130.156-846.072-263.13-1560.488-406.523-2184.07
						c-2.896-12.588-14.834-20.859-27.627-19.226c-663.804,83.816-1236.758,166.352-1751.606,252.329
						C792.637,857.626,783.408,870.57,785.674,884.21L785.674,884.21z"/>
				</g>
				<g>
					<path style="fill:#000072;" d="M1237.905,3151.375c-5.889,0-11.089-4.25-12.09-10.251L840.576,837.235
						c-1.118-6.687,3.393-13.013,10.078-14.131c6.719-1.111,13.018,3.396,14.131,10.083l385.239,2303.889
						c1.118,6.687-3.394,13.013-10.078,14.131C1239.258,3151.322,1238.579,3151.375,1237.905,3151.375z"/>
				</g>
			</g>
			<g>
				<polygon style="fill:#DEEAF9;" points="1108.901,893.234 957.514,921.875 1288.928,3061.747 1485.322,3029.014 				"/>
			</g>
			<g>
				<path style="fill:#000072;" d="M1288.931,3074.022c-2.563,0-5.083-0.806-7.192-2.329c-2.656-1.922-4.434-4.827-4.937-8.069
					L945.386,923.756c-1.016-6.543,3.345-12.71,9.849-13.94l151.387-28.643c3.213-0.613,6.558,0.095,9.258,1.963
					c2.7,1.865,4.541,4.734,5.112,7.966l376.421,2135.781c0.566,3.228-0.176,6.545-2.07,9.219c-1.89,2.673-4.771,4.482-8.003,5.019
					l-196.392,32.732C1290.278,3073.966,1289.604,3074.022,1288.931,3074.022z M971.46,931.73l327.7,2115.869l171.924-28.655
					L1098.97,907.606L971.46,931.73z"/>
			</g>
			<g>
				<path style="fill:#000072;" d="M1024.475,909.514c8.672,58.07,25.633,174.845,33.823,232.959
					c8.779,68.706,25.092,165.307,30.145,233.561c-10.103-38.095-16.795-76.747-24.12-115.299
					c-19.613-103.007-45.689-244.028-64.075-347.254C1000.249,913.481,1024.475,909.514,1024.475,909.514L1024.475,909.514z"/>
			</g>
			<g>
				<path style="fill:#000072;" d="M1110.051,1543.97c10.347,77.53,21.278,155.026,27.491,233.035
					c-4.525-19.075-8.629-38.218-12.332-57.419c-11.187-57.58-21.609-115.295-31.336-173.132
					C1093.875,1546.453,1110.051,1543.97,1110.051,1543.97L1110.051,1543.97z"/>
			</g>
			<g>
				<path style="fill:#000072;" d="M1223.464,2087.961c46.395,200.915,78.616,404.865,102.29,609.638
					C1281.296,2496.316,1245.181,2293.015,1223.464,2087.961L1223.464,2087.961z"/>
			</g>
			<g>
				<path style="fill:#000072;" d="M1256.196,2607.585c24.191,101.872,47.156,230.13,68.666,333.181
					c-0.001,0,21.823,111.248,21.823,111.248l-24.18,4.243C1301.16,2913.343,1273.781,2750.635,1256.196,2607.585L1256.196,2607.585
					z"/>
			</g>
			<g>
				<g>
					<path style="fill:#39A1FF;" d="M3279.5,2790.887c-556.08,117.55-1156.227,219.51-1786.813,310.67
						c-20.008,2.905-38.747-10.679-42.184-30.646L1066.145,844.095c-3.519-20.335,10.065-39.647,30.4-43.166
						c31.096-5.401,62.355-10.761,93.737-16.121c517.865-88.213,1074.068-169.921,1656.744-247.211
						c19.025-2.496,36.906,9.738,41.324,28.395c154.906,655.177,290.294,1375.737,413.122,2137.908
						c2.414,14.811,4.788,29.623,7.16,44.474C3311.781,2768.056,3298.976,2786.796,3279.5,2790.887z"/>
				</g>
				<g>
					<path style="fill:#2F77F7;" d="M3279.5,2790.887c-556.08,117.55-1156.227,219.51-1786.813,310.67
						c-20.008,2.905-38.747-10.679-42.184-30.646L1066.145,844.095c-3.519-20.335,10.065-39.647,30.4-43.166
						c31.096-5.401,62.355-10.761,93.737-16.121l180.068,1029.675c94.473,540.287,553.42,942.567,1101.563,962.206
						c266.318,9.574,545.606-16.08,829.558-72.788c2.414,14.811,4.788,29.623,7.16,44.474
						C3311.781,2768.056,3298.976,2786.796,3279.5,2790.887z"/>
				</g>
				<g style="opacity:0.6;">
					<path style="fill:#FFFFFF;" d="M3308.631,2748.376c-2.372-14.852-4.746-29.664-7.16-44.474
						c-122.828-762.171-258.216-1482.731-413.122-2137.908c-4.418-18.657-22.299-30.891-41.324-28.395
						c-582.676,77.289-1138.879,158.997-1656.744,247.211c-31.382,5.36-62.641,10.72-93.737,16.121
						c-7.249,1.254-13.615,4.542-18.68,9.141c25.113-4.341,50.299-8.667,75.593-12.987
						c517.865-88.213,1074.068-169.921,1656.744-247.211c19.025-2.496,36.906,9.738,41.324,28.395
						c154.906,655.177,290.294,1375.737,413.122,2137.908c2.414,14.811,4.788,29.623,7.16,44.474
						c2.145,13.396-3.116,26.345-12.828,34.546c6.837-1.438,13.697-2.867,20.521-4.309
						C3298.976,2786.796,3311.781,2768.056,3308.631,2748.376z"/>
				</g>
				<g>
					<path style="fill:#000072;" d="M1487.144,3114.24c-23.857,0-44.556-16.97-48.74-41.221L1054.053,846.173l0,0
						c-4.653-26.953,13.467-52.678,40.386-57.349c514.722-89.248,1087.466-175.4,1750.977-263.379
						c25.356-3.352,48.975,12.859,54.858,37.739c147.402,623.201,284.937,1337.354,420.469,2183.267
						c4.194,26.184-12.808,50.981-38.706,56.455c-527.285,111.455-1112.012,213.122-1787.588,310.805
						C1491.992,3114.066,1489.551,3114.24,1487.144,3114.24z M1078.242,841.998l384.351,2226.846
						c2.334,13.491,14.79,22.544,28.34,20.571c675.049-97.608,1259.263-199.182,1786.025-310.528
						c13.081-2.764,21.665-15.308,19.546-28.555c-135.439-845.312-272.861-1558.887-420.117-2181.499
						c-2.974-12.563-14.907-20.73-27.749-19.053c-663.179,87.935-1235.61,174.038-1750.005,263.232
						C1085.039,815.372,1075.894,828.375,1078.242,841.998L1078.242,841.998z"/>
				</g>
				<g>
					<path style="fill:#000072;" d="M1544.512,3106.305c-5.859,0-11.045-4.206-12.08-10.176l-399.58-2301.448
						c-1.157-6.68,3.315-13.035,9.995-14.194c6.646-1.145,13.037,3.316,14.194,9.995l399.58,2301.448
						c1.157,6.68-3.315,13.035-9.995,14.194C1545.918,3106.246,1545.21,3106.305,1544.512,3106.305z"/>
				</g>
			</g>
			<g>
				<g>
					<g>
						
							<ellipse transform="matrix(0.9875 -0.1575 0.1575 0.9875 -218.4152 319.215)" style="fill:#000072;" cx="1904.895" cy="1537.709" rx="126.882" ry="146.524"/>
					</g>
				</g>
				<g>
					<g>
						
							<ellipse transform="matrix(0.9875 -0.1575 0.1575 0.9875 -210.6247 322.9303)" style="fill:#FFFFFF;" cx="1932.286" cy="1490.447" rx="41.369" ry="52.37"/>
					</g>
				</g>
				<g style="opacity:0.2;">
					<g>
						
							<ellipse transform="matrix(0.9875 -0.1575 0.1575 0.9875 -227.7507 313.7763)" style="fill:#FFFFFF;" cx="1865.915" cy="1593.895" rx="22.912" ry="35.442"/>
					</g>
				</g>
			</g>
			<g>
				<g>
					<g>
						
							<ellipse transform="matrix(0.9875 -0.1575 0.1575 0.9875 -193.0997 417.7191)" style="fill:#000072;" cx="2539.083" cy="1427.238" rx="126.882" ry="146.524"/>
					</g>
				</g>
				<g>
					<g>
						
							<ellipse transform="matrix(0.9875 -0.1575 0.1575 0.9875 -185.3152 421.4465)" style="fill:#FFFFFF;" cx="2566.474" cy="1379.976" rx="41.369" ry="52.37"/>
					</g>
				</g>
				<g style="opacity:0.2;">
					<g>
						
							<ellipse transform="matrix(0.9875 -0.1575 0.1575 0.9875 -202.4315 412.2711)" style="fill:#FFFFFF;" cx="2500.103" cy="1483.423" rx="22.912" ry="35.442"/>
					</g>
				</g>
			</g>
			<g>
				<path style="fill:#000072;" d="M2152.241,1637.893c42.19,51.617,111.468,66.473,163.16,21.828
					c14.936-13.451,25.549-32.084,33.234-54.56c5.964,23.032,0.305,49.788-15.283,70.503
					C2279.924,1743.419,2176.915,1716.797,2152.241,1637.893L2152.241,1637.893z"/>
			</g>
			<g>
				<g>
					
						<ellipse transform="matrix(0.977 -0.2133 0.2133 0.977 -195.9304 308.4376)" style="fill:#FEBD1C;" cx="1331.672" cy="1062.375" rx="76.061" ry="94.105"/>
				</g>
				<g>
					<path style="fill:#000072;" d="M1338.564,1168.011c-42.173,0-82.07-35.83-93.198-86.799
						c-12.51-57.307,16.03-112.38,63.618-122.771c47.583-10.381,96.479,27.783,108.989,85.095
						c12.51,57.307-16.025,112.383-63.613,122.771C1349.097,1167.455,1343.809,1168.011,1338.564,1168.011z M1324.951,981.268
						c-3.574,0-7.158,0.378-10.732,1.157c-34.36,7.503-54.492,49.47-44.868,93.552c9.624,44.08,45.41,73.833,79.775,66.345
						c34.36-7.502,54.487-49.468,44.863-93.552C1385.366,1009.274,1355.737,981.268,1324.951,981.268z"/>
				</g>
				<g>
					<g>
						<g>
							<path style="fill:#A3BAD3;" d="M796.454,1178.966c-27.31,0-49.97-21.576-51.068-49.106
								c-1.123-28.225,20.841-52.015,49.066-53.142c166.362-6.633,335.462-26.531,502.591-59.14
								c27.698-5.426,54.584,12.678,59.991,40.404c5.41,27.722-12.678,54.58-40.404,59.99
								c-172.232,33.607-346.546,54.113-518.102,60.953C797.837,1178.954,797.141,1178.966,796.454,1178.966z"/>
						</g>
					</g>
					<g style="opacity:0.6;">
						<path style="fill:#FFFFFF;" d="M798.544,1101.267c166.362-6.633,335.462-26.531,502.591-59.14
							c23.954-4.693,47.272,8.233,56.643,29.742c0.363-4.541,0.171-9.197-0.744-13.887c-5.406-27.726-32.293-45.83-59.991-40.404
							c-167.13,32.608-336.229,52.507-502.591,59.14c-28.225,1.127-50.189,24.917-49.066,53.142
							c0.262,6.549,1.775,12.743,4.249,18.408C751.658,1122.816,772.395,1102.311,798.544,1101.267z"/>
					</g>
					<g>
						<path style="fill:#849FB7;" d="M1357.034,1057.983c-0.789-4.049-2.085-7.86-3.725-11.456
							c-3.054,20.879-18.881,38.534-40.77,42.805c-172.232,33.607-346.546,54.113-518.102,60.953
							c-0.691,0.028-1.386,0.04-2.074,0.04c-20.479,0-38.341-12.132-46.46-29.808c-0.437,3.044-0.643,6.159-0.516,9.343
							c1.099,27.53,23.758,49.106,51.068,49.106c0.687,0,1.383-0.012,2.074-0.04c171.557-6.841,345.87-27.346,518.102-60.953
							C1344.356,1112.563,1362.444,1085.704,1357.034,1057.983z"/>
					</g>
					<g>
						<g>
							<path style="fill:#000072;" d="M796.455,1191.241c-34.15,0-61.973-26.748-63.335-60.894
								c-1.392-34.939,25.903-64.5,60.845-65.896c165.737-6.606,334.204-26.431,500.732-58.921
								c16.597-3.25,33.496,0.168,47.559,9.636c14.053,9.468,23.584,23.838,26.826,40.464c3.247,16.626-0.181,33.521-9.644,47.571
								c-9.463,14.048-23.828,23.574-40.459,26.819c-172.822,33.723-347.764,54.304-519.966,61.172
								C798.154,1191.224,797.305,1191.241,796.455,1191.241z M1306.934,1028.89c-2.5,0-5.02,0.242-7.529,0.735
								c-167.759,32.729-337.481,52.7-504.463,59.358c-21.411,0.854-38.145,18.975-37.29,40.388
								c0.835,20.928,17.881,37.319,38.804,37.319c0.527,0,1.064-0.007,1.592-0.029c170.942-6.816,344.634-27.251,516.235-60.737
								c10.19-1.987,18.994-7.825,24.795-16.438c5.801-8.611,7.9-18.962,5.913-29.153c-1.992-10.19-7.832-18.999-16.45-24.805
								C1322.051,1031.158,1314.575,1028.89,1306.934,1028.89z"/>
						</g>
					</g>
				</g>
			</g>
			<g>
				<g>
					
						<ellipse transform="matrix(0.9708 -0.2398 0.2398 0.9708 -310.807 374.7119)" style="fill:#FEBD1C;" cx="1384.451" cy="1464.597" rx="76.061" ry="94.105"/>
				</g>
				<g>
					<path style="fill:#000072;" d="M1392.188,1570.035c-41.431,0-81.187-34.426-93.496-84.258
						c-6.699-27.117-4.399-54.851,6.47-78.086c11.289-24.124,30.386-40.591,53.779-46.37s47.969-0.095,69.185,15.999
						c20.439,15.5,35.386,38.977,42.08,66.094l0,0c6.704,27.119,4.404,54.854-6.465,78.088
						c-11.289,24.126-30.386,40.593-53.779,46.372C1404.053,1569.335,1398.101,1570.035,1392.188,1570.035z M1376.875,1383.693
						c-4.053,0-8.086,0.483-12.046,1.462c-16.055,3.965-29.351,15.664-37.432,32.939c-8.496,18.167-10.229,40.112-4.873,61.797
						c10.82,43.801,47.397,72.598,81.548,64.15c16.055-3.965,29.351-15.664,37.432-32.942c8.496-18.164,10.229-40.112,4.873-61.797
						l-0.005-0.002c-5.352-21.685-17.104-40.3-33.081-52.422C1401.846,1388.199,1389.253,1383.693,1376.875,1383.693z"/>
				</g>
				<g>
					<g>
						<g>
							<path style="fill:#A3BAD3;" d="M852.607,1595.72c-27.3,0.744-50.538-20.208-52.386-47.698
								c-1.891-28.184,19.417-52.563,47.601-54.458c166.12-11.161,334.615-35.656,500.794-72.803
								c27.54-6.178,54.909,11.187,61.069,38.755c6.163,27.564-11.187,54.905-38.755,61.068
								c-171.253,38.285-344.944,63.529-516.25,75.039C853.988,1595.671,853.294,1595.702,852.607,1595.72z"/>
						</g>
					</g>
					<g style="opacity:0.6;">
						<path style="fill:#FFFFFF;" d="M852.58,1517.993c166.12-11.16,334.615-35.656,500.794-72.803
							c23.817-5.344,47.479,6.942,57.432,28.188c0.239-4.549-0.079-9.198-1.121-13.861c-6.159-27.568-33.529-44.934-61.069-38.755
							c-166.18,37.147-334.674,61.643-500.794,72.803c-28.184,1.895-49.492,26.274-47.601,54.458
							c0.44,6.539,2.121,12.69,4.749,18.285C806.298,1540.81,826.47,1519.749,852.58,1517.993z"/>
					</g>
					<g>
						<path style="fill:#849FB7;" d="M1409.684,1459.516c-0.899-4.026-2.298-7.801-4.036-11.35
							c-2.484,20.955-17.825,39.034-39.589,43.9c-171.253,38.285-344.943,63.53-516.25,75.039c-0.69,0.047-1.385,0.078-2.072,0.096
							c-20.471,0.558-38.657-11.083-47.255-28.532c-0.354,3.055-0.475,6.174-0.262,9.353c1.848,27.49,25.086,48.441,52.386,47.698
							c0.687-0.019,1.382-0.05,2.072-0.096c171.307-11.51,344.997-36.754,516.25-75.039
							C1398.497,1514.422,1415.847,1487.08,1409.684,1459.516z"/>
					</g>
					<g>
						<g>
							<path style="fill:#000072;" d="M851.167,1608.016c-33.345,0-60.938-25.667-63.193-59.167
								c-2.339-34.893,24.141-65.186,59.023-67.529c165.508-11.123,333.374-35.527,498.945-72.539
								c16.514-3.701,33.496-0.745,47.803,8.34c14.312,9.08,24.224,23.186,27.915,39.719c3.701,16.528,0.737,33.511-8.34,47.815
								c-9.077,14.302-23.184,24.214-39.717,27.91c-171.841,38.418-346.157,63.755-518.106,75.305
								c-0.84,0.059-1.694,0.098-2.544,0.122h-0.015C852.349,1608.006,851.758,1608.016,851.167,1608.016z M1359.858,1431.783
								c-2.847,0-5.708,0.317-8.555,0.955c-166.792,37.285-335.908,61.87-502.656,73.074c-21.387,1.438-37.612,20.005-36.182,41.392
								c1.406,20.891,18.857,36.855,39.805,36.248c0.527-0.015,1.055-0.039,1.582-0.073
								c170.703-11.47,343.774-36.626,514.399-74.773c10.132-2.263,18.779-8.34,24.341-17.104
								c5.562-8.767,7.378-19.175,5.112-29.304c-2.266-10.137-8.34-18.782-17.114-24.348
								C1374.287,1433.846,1367.139,1431.783,1359.858,1431.783z"/>
						</g>
					</g>
				</g>
			</g>
			<g>
				<g>
					
						<ellipse transform="matrix(0.9708 -0.2398 0.2398 0.9708 -411.6708 404.9001)" style="fill:#FEBD1C;" cx="1458.099" cy="1894.208" rx="76.061" ry="94.105"/>
				</g>
				<g>
					<path style="fill:#000072;" d="M1465.552,1999.686c-17.656,0-35.322-6.211-51.128-18.201
						c-20.439-15.5-35.386-38.975-42.085-66.096c-6.699-27.117-4.399-54.851,6.47-78.086c11.289-24.126,30.386-40.593,53.779-46.372
						s47.964-0.095,69.185,15.999c20.439,15.503,35.386,38.977,42.085,66.099c6.699,27.117,4.399,54.851-6.47,78.086
						c-11.289,24.124-30.386,40.591-53.779,46.37C1477.642,1998.959,1471.597,1999.686,1465.552,1999.686z M1450.522,1813.302
						c-4.053,0-8.086,0.483-12.046,1.462c-16.055,3.965-29.351,15.664-37.432,32.942c-8.496,18.164-10.229,40.112-4.873,61.797
						c5.356,21.687,17.109,40.303,33.086,52.424c15.19,11.523,32.412,15.693,48.462,11.724
						c16.055-3.965,29.351-15.664,37.432-32.939c8.496-18.167,10.229-40.112,4.873-61.797l-0.005-0.002
						c-5.352-21.685-17.104-40.303-33.081-52.422C1475.488,1817.809,1462.9,1813.302,1450.522,1813.302z"/>
				</g>
				<g>
					<g>
						<g>
							<path style="fill:#A3BAD3;" d="M926.254,2025.331c-27.3,0.744-50.538-20.208-52.387-47.698
								c-1.891-28.184,19.417-52.563,47.601-54.458c166.12-11.161,334.615-35.656,500.795-72.803
								c27.54-6.178,54.909,11.187,61.068,38.755c6.163,27.564-11.187,54.905-38.755,61.068
								c-171.253,38.285-344.944,63.53-516.25,75.039C927.636,2025.282,926.941,2025.313,926.254,2025.331z"/>
						</g>
					</g>
					<g style="opacity:0.6;">
						<path style="fill:#FFFFFF;" d="M926.228,1947.604c166.12-11.161,334.615-35.656,500.794-72.803
							c23.817-5.344,47.479,6.942,57.432,28.188c0.239-4.549-0.079-9.198-1.121-13.861c-6.159-27.568-33.529-44.934-61.068-38.755
							c-166.18,37.147-334.674,61.643-500.795,72.803c-28.184,1.895-49.492,26.274-47.601,54.458
							c0.44,6.539,2.121,12.69,4.749,18.285C879.946,1970.421,900.117,1949.359,926.228,1947.604z"/>
					</g>
					<g>
						<path style="fill:#849FB7;" d="M1483.332,1889.127c-0.899-4.026-2.298-7.801-4.036-11.35
							c-2.484,20.955-17.825,39.034-39.589,43.9c-171.253,38.285-344.943,63.53-516.25,75.039c-0.69,0.047-1.385,0.078-2.072,0.096
							c-20.471,0.558-38.657-11.083-47.255-28.532c-0.353,3.055-0.475,6.175-0.262,9.353c1.848,27.49,25.087,48.441,52.387,47.698
							c0.687-0.019,1.382-0.05,2.072-0.096c171.307-11.51,344.997-36.754,516.25-75.039
							C1472.145,1944.033,1489.495,1916.691,1483.332,1889.127z"/>
					</g>
					<g>
						<g>
							<path style="fill:#000072;" d="M924.814,2037.626c-33.345,0-60.937-25.667-63.193-59.167
								c-2.339-34.893,24.141-65.186,59.023-67.529c165.488-11.118,333.355-35.522,498.945-72.537
								c16.494-3.694,33.486-0.745,47.803,8.337c14.312,9.082,24.224,23.188,27.915,39.722c3.701,16.526,0.737,33.508-8.34,47.813
								c-9.077,14.302-23.179,24.214-39.712,27.91c-171.846,38.418-346.162,63.755-518.105,75.308
								c-0.859,0.059-1.729,0.098-2.593,0.12C925.977,2037.618,925.391,2037.626,924.814,2037.626z M1433.511,1861.395
								c-2.847,0-5.713,0.315-8.56,0.955c-166.812,37.288-335.928,61.873-502.656,73.071c-21.387,1.438-37.612,20.005-36.182,41.392
								c1.406,20.891,19.102,36.833,39.805,36.248h0.034c0.513-0.012,1.03-0.037,1.548-0.071
								c170.703-11.472,343.774-36.628,514.399-74.773c10.132-2.266,18.774-8.34,24.341-17.107
								c5.562-8.767,7.378-19.172,5.112-29.302c-2.266-10.137-8.34-18.784-17.114-24.351
								C1447.935,1863.458,1440.786,1861.395,1433.511,1861.395z"/>
						</g>
					</g>
				</g>
			</g>
			<g>
				<g>
					
						<ellipse transform="matrix(0.9708 -0.2398 0.2398 0.9708 -515.7254 433.4953)" style="fill:#FEBD1C;" cx="1523.563" cy="2336.094" rx="76.061" ry="94.105"/>
				</g>
				<g>
					<path style="fill:#000072;" d="M1531.016,2441.571c-17.656,0-35.322-6.211-51.128-18.201
						c-20.439-15.5-35.386-38.975-42.085-66.096c-6.694-27.119-4.399-54.851,6.475-78.086
						c11.284-24.126,30.381-40.593,53.774-46.369c47.261-11.687,97.202,25.142,111.27,82.092l0.005,0.002
						c6.694,27.119,4.395,54.851-6.475,78.086c-11.289,24.126-30.386,40.593-53.779,46.37
						C1543.105,2440.844,1537.061,2441.571,1531.016,2441.571z M1516.025,2255.184c-4.033,0-8.076,0.476-12.085,1.468
						c-16.055,3.965-29.346,15.661-37.432,32.939c-8.496,18.164-10.225,40.112-4.868,61.8c5.352,21.684,17.104,40.3,33.081,52.422
						c15.19,11.524,32.412,15.694,48.462,11.724c16.055-3.965,29.351-15.662,37.432-32.94c8.501-18.164,10.229-40.112,4.878-61.797
						l0,0C1575.942,2282.14,1546.318,2255.184,1516.025,2255.184z"/>
				</g>
				<g>
					<g>
						<g>
							<path style="fill:#A3BAD3;" d="M991.719,2467.217c-27.3,0.744-50.538-20.208-52.386-47.698
								c-1.891-28.184,19.417-52.563,47.601-54.458c166.12-11.16,334.615-35.656,500.794-72.803
								c27.54-6.178,54.909,11.187,61.068,38.755c6.163,27.564-11.187,54.906-38.755,61.069
								c-171.253,38.285-344.944,63.529-516.25,75.039C993.101,2467.167,992.406,2467.198,991.719,2467.217z"/>
						</g>
					</g>
					<g style="opacity:0.6;">
						<path style="fill:#FFFFFF;" d="M991.692,2389.49c166.12-11.16,334.615-35.656,500.794-72.803
							c23.817-5.343,47.479,6.942,57.432,28.188c0.239-4.549-0.079-9.198-1.121-13.862c-6.159-27.568-33.529-44.934-61.068-38.755
							c-166.18,37.147-334.674,61.643-500.794,72.803c-28.184,1.895-49.492,26.274-47.601,54.458
							c0.44,6.539,2.121,12.69,4.749,18.285C945.41,2412.307,965.582,2391.245,991.692,2389.49z"/>
					</g>
					<g>
						<path style="fill:#849FB7;" d="M1548.797,2331.013c-0.899-4.026-2.298-7.801-4.036-11.35
							c-2.484,20.955-17.825,39.034-39.589,43.9c-171.253,38.285-344.943,63.53-516.25,75.039c-0.69,0.047-1.385,0.078-2.072,0.096
							c-20.471,0.558-38.657-11.083-47.255-28.532c-0.354,3.055-0.475,6.175-0.262,9.354c1.848,27.49,25.086,48.441,52.386,47.698
							c0.687-0.019,1.382-0.05,2.072-0.096c171.307-11.51,344.997-36.754,516.25-75.039
							C1537.609,2385.918,1554.959,2358.577,1548.797,2331.013z"/>
					</g>
					<g>
						<g>
							<path style="fill:#000072;" d="M990.278,2479.513c-33.345,0-60.938-25.667-63.193-59.167
								c-2.339-34.89,24.141-65.185,59.023-67.531c165.503-11.118,333.369-35.523,498.945-72.537
								c16.514-3.699,33.496-0.742,47.803,8.34c14.312,9.08,24.224,23.184,27.92,39.717s0.732,33.513-8.345,47.817
								c-9.077,14.302-23.184,24.214-39.717,27.91c-171.855,38.418-346.172,63.755-518.105,75.305
								c-0.84,0.059-1.694,0.098-2.544,0.122h-0.015C991.46,2479.503,990.869,2479.513,990.278,2479.513z M1498.97,2303.28
								c-2.847,0-5.708,0.318-8.555,0.955c-166.797,37.285-335.913,61.87-502.656,73.071c-21.382,1.44-37.612,20.01-36.182,41.394
								c1.406,20.894,19.102,36.755,39.805,36.248c0.527-0.015,1.055-0.039,1.582-0.073
								c170.688-11.467,343.755-36.624,514.399-74.773c10.132-2.263,18.779-8.34,24.341-17.107
								c5.566-8.765,7.383-19.172,5.117-29.304c-2.266-10.134-8.345-18.779-17.119-24.346
								C1513.398,2305.343,1506.25,2303.28,1498.97,2303.28z"/>
						</g>
					</g>
				</g>
			</g>
			<g>
				<g>
					
						<ellipse transform="matrix(0.9708 -0.2398 0.2398 0.9708 -620.9891 460.2361)" style="fill:#FEBD1C;" cx="1580.844" cy="2782.071" rx="76.061" ry="94.105"/>
				</g>
				<g>
					<path style="fill:#000072;" d="M1588.296,2887.55c-17.656,0-35.322-6.211-51.128-18.201
						c-20.439-15.503-35.386-38.977-42.085-66.099c-14.063-56.946,12.969-112.776,60.254-124.456
						c47.3-11.687,97.202,25.151,111.265,82.092l0.005,0.003c14.063,56.946-12.969,112.778-60.254,124.458
						C1600.386,2886.823,1594.341,2887.55,1588.296,2887.55z M1573.311,2701.161c-4.033,0-8.076,0.476-12.085,1.467
						c-34.146,8.433-53.125,50.933-42.305,94.739c5.352,21.685,17.104,40.303,33.081,52.422
						c15.2,11.523,32.412,15.701,48.462,11.726c34.146-8.433,53.12-50.938,42.31-94.739l0,0
						C1633.223,2728.119,1603.604,2701.161,1573.311,2701.161z"/>
				</g>
				<g>
					<g>
						<g>
							<path style="fill:#A3BAD3;" d="M1049,2913.194c-27.3,0.744-50.539-20.208-52.386-47.698
								c-1.891-28.184,19.417-52.563,47.601-54.458c166.12-11.16,334.615-35.656,500.795-72.803
								c27.54-6.178,54.909,11.187,61.068,38.755c6.163,27.564-11.187,54.906-38.755,61.068
								c-171.253,38.285-344.943,63.53-516.25,75.039C1050.382,2913.144,1049.687,2913.175,1049,2913.194z"/>
						</g>
					</g>
					<g style="opacity:0.6;">
						<path style="fill:#FFFFFF;" d="M1048.974,2835.467c166.12-11.16,334.615-35.656,500.794-72.803
							c23.817-5.344,47.479,6.942,57.432,28.188c0.239-4.549-0.079-9.198-1.122-13.862c-6.159-27.568-33.529-44.934-61.068-38.755
							c-166.18,37.147-334.674,61.643-500.795,72.803c-28.184,1.895-49.492,26.274-47.601,54.458
							c0.44,6.539,2.121,12.69,4.749,18.285C1002.692,2858.284,1022.863,2837.222,1048.974,2835.467z"/>
					</g>
					<g>
						<path style="fill:#849FB7;" d="M1606.078,2776.99c-0.899-4.026-2.298-7.801-4.036-11.35
							c-2.484,20.955-17.825,39.034-39.589,43.9c-171.253,38.285-344.944,63.53-516.25,75.039c-0.69,0.047-1.385,0.078-2.072,0.096
							c-20.471,0.558-38.657-11.083-47.255-28.532c-0.353,3.055-0.475,6.175-0.262,9.353c1.848,27.49,25.086,48.441,52.386,47.698
							c0.687-0.019,1.382-0.05,2.072-0.096c171.307-11.51,344.997-36.754,516.25-75.039
							C1594.891,2831.895,1612.241,2804.554,1606.078,2776.99z"/>
					</g>
					<g>
						<g>
							<path style="fill:#000072;" d="M1047.559,2925.49c-33.35,0-60.942-25.667-63.189-59.17
								c-1.138-16.902,4.375-33.235,15.523-45.989c11.147-12.754,26.597-20.403,43.496-21.538
								c165.508-11.12,333.374-35.527,498.945-72.539c16.494-3.696,33.491-0.745,47.803,8.34
								c14.312,9.082,24.224,23.188,27.92,39.719c3.696,16.531,0.732,33.511-8.34,47.815c-9.077,14.302-23.184,24.214-39.717,27.91
								c-171.846,38.418-346.162,63.755-518.105,75.305c-0.85,0.059-1.704,0.097-2.549,0.122h-0.015
								C1048.74,2925.479,1048.149,2925.49,1047.559,2925.49z M1556.25,2749.259c-2.847,0-5.708,0.315-8.555,0.952
								c-166.797,37.285-335.913,61.87-502.656,73.074c-10.361,0.698-19.829,5.385-26.66,13.203
								c-6.831,7.815-10.21,17.827-9.517,28.186c1.406,20.896,18.853,36.804,39.8,36.25c0.532-0.015,1.06-0.039,1.592-0.073
								c170.693-11.469,343.765-36.626,514.395-74.773c10.132-2.263,18.774-8.34,24.336-17.104
								c5.566-8.765,7.383-19.173,5.117-29.304c-2.266-10.134-8.345-18.779-17.119-24.348
								C1570.679,2751.32,1563.53,2749.259,1556.25,2749.259z"/>
						</g>
					</g>
				</g>
			</g>
			<g>
				
					<ellipse transform="matrix(0.9875 -0.1575 0.1575 0.9875 -272.1415 312.0903)" style="fill:#FF8CC3;" cx="1833.102" cy="1873.156" rx="94.105" ry="59.876"/>
			</g>
			<g>
				
					<ellipse transform="matrix(0.9875 -0.1575 0.1575 0.9875 -239.2255 450.1087)" style="fill:#FF8CC3;" cx="2720.379" cy="1734.464" rx="94.105" ry="60.198"/>
			</g>
		</g>
		<g>
			<path style="fill:#000072;" d="M1180.732,3194.042c-41.499,0-76.582-29.795-83.413-70.844l-27.246-163.95
				c-5.449,0.398-10.693,0.764-15.83,1.111c-1.45,0.091-2.729,0.151-4.004,0.183c-0.918,0.022-1.807,0.037-2.686,0.037
				c-51.602,0-94.736-40.369-98.198-91.907c-3.555-53.052,35.786-99.26,88.276-104.604l-41.484-249.636
				c-1.089,0.061-2.09,0.105-3.071,0.135c-1.128,0.024-1.968,0.036-2.788,0.036c-51.602,0-94.741-40.368-98.213-91.902
				c-3.184-47.392,27.866-89.324,71.953-101.541l-41.294-248.467c-50.674-1.064-92.705-41.037-96.128-91.88
				c-2.983-44.631,24.385-84.414,64.39-99.106l-39.653-238.601c-0.063,0-0.122,0-0.181,0c-51.597,0-94.731-40.369-98.203-91.899
				c-3.037-45.422,25.352-85.82,66.514-99.863l-37.573-226.069c-46.201-6.785-81.919-45.427-83.843-93.518
				c-1.553-39.304,20.142-74.297,53.12-91.36l-24.336-146.406c-7.651-46.057,23.565-89.775,69.585-97.456
				c13.599-2.271,27.31-4.536,41.021-6.802l10.366-1.714c186.987-30.913,384.238-61.802,586.357-91.819
				c424.248-69.045,884.517-136.301,1406.626-205.532c43.32-5.818,83.56,21.902,93.628,64.441
				c147.583,624.009,285.298,1339.089,420.962,2185.791l0,0c7.168,44.677-21.87,86.994-66.099,96.343
				c-414.556,87.627-858.872,168.203-1358.34,246.33c-232.339,37.146-480.815,74.045-738.423,109.658
				C1188.608,3193.768,1184.644,3194.042,1180.732,3194.042z M1128.735,2884.166l37.808,227.517
				c1.309,7.883,8.179,13.154,16.382,12.029c257.109-35.542,505.093-72.368,737.061-109.455
				c498.345-77.952,941.465-158.308,1354.79-245.677c7.583-1.604,12.554-8.882,11.323-16.57v-0.005
				c-135.4-845.059-272.773-1558.386-419.966-2180.745c-1.724-7.29-8.706-12.022-16.064-11.035
				c-521.47,69.146-981.069,136.301-1405.107,205.31c-202.285,30.046-399.224,60.886-585.884,91.746l-0.005,0.002l-10.19,1.685
				c-13.662,2.256-27.339,4.514-40.898,6.782c-7.886,1.316-13.228,8.823-11.914,16.736l35.532,213.801l-37.656,3.398
				c-15.044,1.357-26.362,14.219-25.771,29.28c0.61,15.239,13.032,27.19,28.281,27.19l1.26-0.027
				c2.422-0.098,4.941-0.215,7.461-0.332l36.05-1.589l59.57,358.423l-42.969,3.086c-2.827,0.21-5.654,0.417-8.477,0.608
				c-15.581,1.047-27.417,14.587-26.372,30.181c1.016,15.056,13.13,26.423,28.184,26.423l2.148-0.073
				c8.154-0.549,16.479-1.167,24.815-1.794l31.982-2.4l62.119,373.772l-49.243,3.503c-15.566,1.047-27.402,14.587-26.357,30.178
				c1.016,15.056,13.13,26.423,28.184,26.423l2.036-0.066c6.709-0.452,13.472-0.952,20.239-1.455l34.453-2.551l64.014,385.183
				l-42.183,3.103c-4.966,0.368-9.941,0.737-14.907,1.072c-15.586,1.047-27.417,14.583-26.367,30.168
				c1.016,15.066,13.135,26.433,28.193,26.433l2.139-0.073c10.015-0.677,20.215-1.414,30.42-2.195l32.026-2.449l64.556,388.489
				l-38.14,2.995c-11.855,0.93-23.716,1.812-35.552,2.605c-15.576,1.047-27.407,14.585-26.362,30.176
				c1.011,15.063,13.125,26.428,28.179,26.428l2.153-0.073c13.916-0.935,28.853-2.061,46.851-3.53L1128.735,2884.166z"/>
		</g>
	</g>
	<g style="opacity:0.2;">
		<ellipse style="fill:#000072;" cx="2068.513" cy="3522.085" rx="822.788" ry="57.915"/>
	</g>
</g>
</svg>
